<?xml version="1.0" standalone="no"?>
<!DOCTYPE svg PUBLIC "-//W3C//DTD SVG 20010904//EN"
 "http://www.w3.org/TR/2001/REC-SVG-20010904/DTD/svg10.dtd">
<svg xmlns="http://www.w3.org/2000/svg" version="1.0" width="500pt" height="500pt" viewBox="0 0 2363.000000 2363.000000" preserveAspectRatio="xMidYMid meet">

<g transform="translate(0.000000,2363.000000) scale(0.100000,-0.100000)" fill="#000000" stroke="none">
<path d="M3140 13465 c-221 -35 -436 -144 -598 -303 -132 -130 -218 -268 -276 -443 -191 -574 122 -1196 701 -1393 242 -82 543 -70 773 31 77 33 176 86 207 111 l22 17 -23 120 c-13 66 -27 137 -31 158 -5 34 -9 38 -32 35 -23 -3 -27 -11 -44 -75 -45 -178 -157 -316 -295 -363 -215 -74 -483 -31 -687 110 -225 155 -385 423 -431 725 -18 117 -13 313 12 430 85 396 369 708 710 780 138 30 337 13 433 -35 136 -69 258 -244 308 -440 16 -66 22 -75 43 -78 22 -3 28 7 85 159 l61 161 -35 32 c-238 211 -585 311 -903 261z"/>
<path d="M4940 13450 c0 -30 0 -30 55 -30 l55 0 2 -542 3 -543 413 -3 412 -2 0 -60 c0 -57 1 -60 25 -60 l25 0 0 150 0 150 -25 0 c-24 0 -25 -2 -25 -65 l0 -65 -315 0 -315 0 0 520 0 520 388 0 387 0 53 -25 c70 -33 122 -76 189 -158 l56 -68 61 60 c60 60 60 60 41 81 -33 36 -152 111 -211 131 -95 34 -186 38 -738 39 l-536 0 0 -30z"/>
<path d="M17796 13470 c-476 -75 -851 -440 -936 -910 -15 -83 -15 -275 -1 -363 63 -377 320 -698 678 -846 143 -59 232 -75 408 -75 100 -1 183 4 220 13 139 31 293 96 395 164 25 17 46 31 47 31 1 1 -6 35 -16 76 -11 41 -24 112 -31 158 -12 79 -13 82 -39 82 -25 0 -28 -5 -39 -59 -28 -137 -144 -306 -243 -357 -159 -80 -428 -75 -617 11 -229 105 -420 330 -512 603 -175 524 47 1128 495 1343 130 63 226 82 375 77 237 -10 358 -86 473 -299 35 -64 87 -213 87 -250 0 -14 7 -19 28 -19 26 0 30 7 85 156 32 86 56 162 53 169 -9 24 -129 113 -221 164 -165 90 -309 129 -509 136 -66 2 -148 0 -180 -5z"/>
<path d="M7305 13459 c-4 -5 -3 -18 0 -29 5 -17 15 -20 61 -20 l54 0 0 -660 0 -660 -60 0 c-57 0 -60 -1 -60 -25 0 -24 3 -25 60 -25 l59 0 3 -338 c2 -186 2 -346 0 -355 -3 -14 -15 -17 -63 -17 -57 0 -60 -1 -57 -22 3 -23 3 -23 221 -26 l217 -2 0 25 c0 24 -3 25 -60 25 l-60 0 0 355 0 355 270 0 269 0 56 -82 c31 -46 139 -206 240 -355 l183 -273 -44 0 c-40 0 -44 -2 -44 -25 l0 -25 215 0 215 0 0 25 c0 24 -3 25 -53 25 l-54 0 -125 188 c-70 103 -181 268 -248 367 -67 99 -124 183 -126 186 -2 4 40 28 94 55 81 40 112 63 188 139 73 72 98 105 127 165 52 111 62 166 62 330 -1 120 -5 157 -23 215 -50 165 -174 307 -342 394 -103 53 -192 79 -318 91 -137 13 -849 12 -857 -1z m924 -65 c202 -46 364 -222 405 -439 18 -93 15 -347 -4 -435 -41 -186 -165 -324 -358 -398 -66 -26 -73 -26 -359 -30 l-293 -4 0 660 c0 428 3 662 10 664 5 2 128 2 272 0 187 -2 282 -7 327 -18z"/>
<path d="M10667 13403 c14 -38 32 -87 40 -110 l15 -43 -146 -402 c-80 -222 -235 -650 -345 -953 l-199 -550 -94 -5 c-93 -5 -93 -5 -96 -32 l-3 -28 205 0 206 0 0 30 0 30 -80 0 c-44 0 -80 2 -80 4 0 4 199 558 215 598 7 17 45 18 560 20 l553 3 -132 355 c-73 195 -199 534 -280 753 l-148 397 -109 0 -108 0 26 -67z m93 -247 c0 -2 93 -253 206 -558 114 -304 209 -561 211 -570 5 -17 -20 -18 -422 -18 -403 0 -427 1 -420 18 15 37 378 1040 393 1085 9 26 19 47 24 47 4 0 8 -2 8 -4z"/>
<path d="M12684 13454 c4 -10 29 -54 56 -100 l50 -82 0 -971 0 -971 -95 0 c-95 0 -95 0 -95 -25 l0 -25 215 0 215 0 0 25 c0 25 -1 25 -89 25 -63 0 -90 4 -92 13 -2 6 -2 418 1 914 l5 902 547 -937 546 -937 116 -3 115 -3 -51 88 c-28 48 -134 229 -235 401 l-184 313 127 217 c70 119 160 271 199 337 40 66 145 243 234 393 89 149 164 272 166 272 3 0 5 -443 5 -985 l0 -985 -60 0 c-57 0 -60 -1 -60 -25 l0 -25 215 0 215 0 0 25 c0 24 -3 25 -60 25 l-60 0 0 1040 0 1040 60 0 c60 0 60 0 60 30 l0 29 -215 0 -215 -1 0 -28 c0 -28 2 -29 55 -32 l55 -3 -156 -265 c-86 -146 -221 -373 -299 -505 -78 -132 -176 -297 -216 -367 -41 -70 -76 -127 -79 -127 -3 0 -124 205 -270 456 -146 251 -319 549 -385 662 l-120 206 -114 3 c-103 2 -113 1 -107 -14z"/>
<path d="M15614 13455 c-13 -33 3 -44 61 -42 l55 2 0 -1042 0 -1043 -60 0 c-57 0 -60 -1 -60 -25 l0 -25 219 0 219 0 0 25 c0 24 -3 25 -59 25 l-59 0 0 1040 0 1040 28 1 c87 3 87 3 87 29 l0 25 -213 2 c-180 2 -214 0 -218 -12z"/>
<path d="M20320 13463 c0 -4 16 -50 35 -102 19 -51 35 -101 35 -110 0 -9 -154 -441 -343 -961 l-342 -945 -93 -3 -92 -3 0 -29 0 -30 206 0 205 0 -3 28 c-3 27 -4 27 -84 32 l-82 5 111 308 110 307 554 0 c528 0 554 1 549 18 -3 10 -129 348 -280 752 l-274 735 -106 3 c-58 1 -106 -1 -106 -5z m319 -864 c116 -312 211 -572 211 -578 0 -8 -118 -11 -420 -11 -304 0 -420 3 -420 11 0 14 412 1151 415 1147 2 -2 98 -258 214 -569z"/>
<path d="M6285 11540 c-42 -60 -146 -154 -201 -181 l-49 -24 -547 -3 -548 -3 0 -24 0 -25 563 0 c604 1 655 5 760 53 52 24 177 113 177 126 0 8 -113 121 -121 121 -4 0 -19 -18 -34 -40z"/>
<path d="M11339 11338 c-1 -2 -3 -15 -5 -30 l-3 -28 205 0 204 0 0 30 0 30 -200 0 c-110 0 -201 -1 -201 -2z"/>
<path d="M21010 11310 l0 -30 204 0 203 0 -1 28 -1 27 -202 3 -203 2 0 -30z"/>
<path d="M7930 10535 c0 -2 9 -26 19 -52 l19 -49 -154 -424 c-84 -234 -161 -444 -170 -467 -15 -42 -17 -43 -60 -43 -32 0 -44 -4 -44 -15 0 -12 18 -15 100 -15 82 0 100 3 100 15 0 11 -11 15 -40 15 -22 0 -40 3 -40 8 0 4 24 71 52 150 l53 142 219 -2 219 -3 47 -125 c68 -180 66 -170 36 -170 -16 0 -26 -6 -26 -15 0 -12 18 -15 100 -15 80 0 100 3 100 14 0 8 -10 16 -22 18 -20 3 -43 58 -199 476 -97 260 -184 493 -194 517 -17 45 -17 45 -66 45 -27 0 -49 -2 -49 -5z m155 -426 c55 -148 102 -274 103 -280 2 -5 -78 -9 -206 -9 l-209 0 101 280 c56 154 103 280 106 280 3 0 50 -122 105 -271z" style="&#10;    fill: #973D3D;&#10;"/>
<path d="M9290 10530 c0 -5 14 -10 30 -10 l30 0 0 -515 0 -515 -30 0 c-16 0 -30 -4 -30 -10 0 -6 42 -10 105 -10 63 0 105 4 105 10 0 6 -13 10 -30 10 l-30 0 0 245 0 245 155 0 155 0 0 -30 c0 -16 5 -30 10 -30 6 0 10 30 10 70 0 40 -4 70 -10 70 -5 0 -10 -13 -10 -30 l0 -30 -155 0 -155 0 0 260 0 260 190 0 c216 0 221 -1 289 -75 l43 -47 30 29 29 28 -33 28 c-61 51 -104 57 -415 57 -182 0 -283 -4 -283 -10z" style="&#10;    fill: #973D3D;&#10;"/>
<path d="M13860 10524 c-244 -64 -410 -278 -410 -527 0 -306 265 -554 570 -534 82 6 165 28 226 61 59 31 57 26 43 110 -7 42 -18 76 -24 76 -6 0 -19 -24 -28 -54 -25 -80 -85 -142 -155 -162 -174 -51 -370 46 -469 232 -44 82 -63 166 -63 274 0 218 99 394 268 477 71 35 82 38 166 38 78 0 97 -3 136 -25 57 -32 113 -106 138 -184 11 -33 24 -62 29 -63 6 -2 24 33 41 77 l30 80 -55 40 c-124 89 -300 122 -443 84z" style="&#10;    fill: #973D3D;&#10;"/>
<path d="M15550 10535 c0 -2 9 -26 19 -52 l19 -49 -154 -424 c-84 -234 -161 -444 -170 -467 -15 -42 -17 -43 -60 -43 -32 0 -44 -4 -44 -15 0 -12 18 -15 100 -15 82 0 100 3 100 15 0 11 -11 15 -40 15 -22 0 -40 3 -40 8 0 4 24 71 52 150 l53 142 219 -2 219 -3 47 -125 c68 -180 66 -170 36 -170 -16 0 -26 -6 -26 -15 0 -12 18 -15 100 -15 80 0 100 3 100 14 0 8 -10 16 -22 18 -20 3 -43 58 -199 476 -97 260 -184 493 -194 517 -17 45 -17 45 -66 45 -27 0 -49 -2 -49 -5z m155 -426 c55 -148 102 -274 103 -280 2 -5 -78 -9 -206 -9 l-209 0 101 280 c56 154 103 280 106 280 3 0 50 -122 105 -271z" style="&#10;    fill: #973D3D;&#10;"/>
<path d="M10800 10521 c0 -6 14 -11 30 -11 l30 0 0 -325 0 -325 -30 0 c-16 0 -30 -4 -30 -10 0 -5 14 -10 30 -10 l30 0 0 -175 0 -175 -30 0 c-16 0 -30 -4 -30 -10 0 -6 42 -10 105 -10 63 0 105 4 105 10 0 6 -13 10 -30 10 l-30 0 0 175 0 175 133 0 134 0 116 -175 c96 -143 113 -175 97 -175 -11 0 -20 -4 -20 -10 0 -6 40 -10 100 -10 60 0 100 4 100 10 0 6 -11 10 -25 10 -21 0 -43 27 -145 180 -66 99 -120 182 -120 184 0 2 21 15 47 27 61 30 122 91 153 154 20 42 24 65 24 145 0 121 -23 179 -100 249 -94 86 -130 95 -406 99 -166 2 -238 0 -238 -7z m452 -21 c63 -18 129 -70 162 -130 28 -50 31 -65 34 -161 7 -178 -37 -272 -153 -325 -45 -22 -64 -24 -197 -24 l-148 0 0 325 0 325 133 0 c72 0 149 -5 169 -10z" style="&#10;    fill: #973D3D;&#10;"/>
<path d="M12450 10520 c0 -5 14 -10 30 -10 l30 0 0 -510 0 -510 -30 0 c-16 0 -30 -4 -30 -10 0 -6 42 -10 105 -10 63 0 105 4 105 10 0 6 -13 10 -30 10 l-30 0 0 510 0 510 30 0 c17 0 30 5 30 10 0 6 -42 10 -105 10 -63 0 -105 -4 -105 -10z" style="&#10;    fill: #973D3D;&#10;"/>
</g>
</svg>