<?xml version="1.0" standalone="no"?>
<!DOCTYPE svg PUBLIC "-//W3C//DTD SVG 20010904//EN"
 "http://www.w3.org/TR/2001/REC-SVG-20010904/DTD/svg10.dtd">
<svg version="1.0" xmlns="http://www.w3.org/2000/svg"
 width="100" height="100" viewBox="0 0 2363.000000 2363.000000"
 preserveAspectRatio="xMidYMid meet">

    <g xmlns="http://www.w3.org/2000/svg" transform="translate(0.000000,2363.000000) scale(0.100000,-0.100000)" fill="#000000" stroke="none">
        <path d="M4460 15940 c-115 -14 -213 -38 -355 -87 -71 -24 -158 -47 -192 -50 -59 -6 -67 -3 -147 37 -98 49 -133 49 -189 1 -17 -15 -79 -63 -137 -106 -195 -147 -265 -228 -339 -395 -43 -96 -65 -134 -115 -194 -34 -41 -37 -48 -18 -41 41 12 274 6 358 -10 212 -40 412 -146 556 -292 l67 -68 -77 -152 c-42 -84 -80 -153 -84 -153 -17 0 -38 35 -38 64 0 55 -39 187 -81 273 -102 208 -258 296 -524 297 -175 0 -297 -38 -450 -139 -199 -132 -359 -361 -431 -616 -23 -82 -27 -117 -31 -285 -5 -184 -4 -196 22 -300 94 -375 329 -635 649 -718 144 -38 319 -29 425 21 99 47 199 169 247 300 26 70 36 82 60 65 8 -5 35 -240 34 -300 0 -18 -146 -85 -253 -116 -234 -68 -520 -47 -742 53 -202 92 -389 262 -501 456 l-29 50 -12 -55 c-7 -30 -13 -103 -14 -162 -1 -148 13 -177 118 -250 92 -65 145 -130 229 -281 139 -251 207 -334 321 -395 141 -74 303 -92 608 -67 236 19 399 50 510 95 144 59 179 69 244 70 81 0 121 -18 226 -106 100 -83 131 -99 258 -129 57 -13 116 -29 132 -35 15 -6 30 -9 32 -7 2 3 -8 31 -22 62 -14 32 -24 59 -23 61 2 1 12 4 22 6 16 2 26 -11 50 -70 l31 -74 125 6 c69 4 157 9 195 11 39 2 122 7 185 10 63 3 147 8 185 10 39 2 117 7 175 10 58 3 143 8 190 10 47 3 218 12 380 20 451 23 402 14 481 90 37 36 71 65 77 65 8 0 72 -143 72 -161 0 -4 -199 -195 -442 -425 -244 -231 -479 -454 -524 -497 l-81 -77 -56 132 c-215 508 -329 774 -337 782 -5 5 -85 4 -187 -3 -98 -6 -230 -14 -293 -17 -63 -4 -117 -8 -119 -10 -2 -2 6 -22 17 -46 28 -57 37 -98 23 -98 -6 0 -11 -8 -11 -18 0 -9 -22 -64 -50 -122 -53 -112 -61 -155 -37 -213 8 -18 75 -123 151 -235 146 -218 232 -379 268 -507 19 -68 23 -103 22 -235 0 -137 -5 -177 -37 -345 -49 -248 -56 -310 -52 -430 6 -166 46 -297 195 -640 48 -110 95 -222 106 -250 l19 -50 7 116 c25 434 269 797 661 984 315 151 692 148 1002 -8 156 -78 343 -240 434 -374 l41 -63 48 34 c26 19 102 61 170 95 97 49 137 76 195 130 62 59 70 71 58 84 -9 12 -11 34 -6 82 4 36 3 65 -1 66 -5 0 -16 2 -24 3 -8 2 -55 7 -105 10 -49 4 -103 9 -120 12 -23 3 -1854 172 -2180 200 -38 4 -101 9 -138 13 -37 4 -70 5 -72 2 -1 -3 -6 -36 -10 -73 -7 -67 -8 -68 -37 -68 -27 0 -29 2 -24 33 3 17 8 66 11 107 4 41 13 143 21 225 7 83 14 156 14 163 0 7 13 12 30 12 l30 0 -6 -62 c-3 -35 -7 -68 -9 -75 -5 -17 3 -18 455 -58 328 -29 597 -53 1100 -100 30 -2 154 -14 275 -25 121 -11 243 -22 270 -25 195 -19 494 -45 522 -45 32 0 33 1 33 39 0 73 10 101 36 101 30 0 30 -12 9 -224 -26 -265 -26 -254 -10 -232 22 29 54 133 64 211 16 115 -1 208 -86 453 -36 105 -49 131 -62 128 -9 -3 -225 -46 -481 -96 -256 -51 -466 -93 -467 -94 -1 -1 2 -18 6 -38 7 -28 5 -38 -5 -42 -16 -6 -15 -9 -48 159 -13 66 -22 123 -20 127 12 19 24 5 30 -32 5 -28 11 -40 23 -39 9 0 225 42 481 92 l465 93 2 59 c0 33 4 83 7 111 5 43 3 53 -12 59 -9 4 -150 54 -312 112 -162 58 -310 110 -329 117 l-34 12 174 155 c96 85 267 236 381 337 114 100 209 186 212 191 3 4 -79 -9 -182 -29 -103 -21 -388 -77 -635 -125 l-447 -88 7 -36 c10 -51 10 -86 -2 -89 -11 -3 -67 255 -60 276 10 28 24 8 35 -53 7 -36 17 -65 23 -65 12 0 951 184 1175 230 147 31 172 42 226 99 17 17 33 31 36 31 4 0 12 -32 19 -70 10 -54 10 -74 1 -85 -6 -7 -186 -168 -401 -357 -214 -188 -389 -345 -389 -348 0 -3 114 -45 253 -94 138 -49 257 -91 263 -93 5 -2 33 43 62 99 28 57 75 135 103 173 29 39 199 216 379 395 409 407 500 519 615 755 86 175 137 382 115 464 -24 92 -92 85 -375 -40 -114 -50 -125 -53 -205 -54 -71 0 -93 4 -133 25 -55 28 -172 145 -348 350 -275 322 -445 559 -576 805 l-53 100 0 -80 c-1 -146 -41 -300 -106 -411 -61 -105 -273 -293 -402 -358 -119 -60 -171 -71 -332 -71 -170 0 -249 18 -395 90 -49 24 -90 43 -92 41 -2 -1 -74 -241 -162 -532 l-159 -529 39 -49 c37 -47 38 -50 22 -68 -9 -10 -20 -17 -24 -16 -4 2 -79 91 -167 200 -159 194 -160 196 -140 214 19 18 21 18 55 -19 19 -21 36 -37 38 -35 2 2 71 227 154 501 l151 498 -201 247 c-110 136 -206 251 -213 256 -9 6 -111 -71 -342 -259 -181 -147 -332 -271 -336 -274 -4 -4 12 -31 37 -61 41 -51 43 -55 28 -72 -9 -10 -19 -18 -23 -18 -7 0 -323 385 -328 400 -2 5 7 14 19 20 20 11 26 7 69 -41 l46 -53 330 269 c181 147 333 272 338 276 5 4 -13 33 -39 64 -46 53 -47 56 -29 70 10 8 22 15 25 15 3 0 25 -24 49 -54 l43 -54 111 91 c61 49 299 243 529 431 229 187 417 343 417 346 0 3 -29 13 -65 22 -36 10 -118 42 -184 72 -65 31 -139 60 -164 66 -85 19 -187 -13 -224 -69 -9 -14 -24 -57 -34 -95 -24 -93 -52 -120 -120 -114 -28 3 -47 1 -46 -5 1 -5 -30 -29 -70 -52 l-72 -43 -45 93 c-47 96 -120 187 -181 225 -29 18 -812 226 -820 218 -4 -4 -268 -1050 -269 -1067 -1 -17 646 -185 655 -169 3 5 12 34 18 64 10 42 17 54 31 54 10 0 21 -4 24 -8 2 -4 -12 -74 -32 -155 -29 -118 -40 -147 -54 -147 -27 0 -30 15 -14 75 8 30 11 57 8 59 -4 2 -196 52 -426 110 -230 58 -420 107 -421 108 -2 2 60 251 136 553 76 303 139 556 139 563 0 14 -4 16 -67 32 -32 8 -43 16 -43 30 0 10 4 21 8 24 5 3 210 -47 458 -109 247 -63 453 -115 459 -115 5 0 -18 16 -52 37 -34 20 -64 41 -66 47 -4 9 51 263 69 318 6 20 -16 25 -156 33 -58 4 -116 9 -130 11 -55 10 -400 12 -470 4z m463 -2720 c80 0 204 56 306 138 42 35 55 41 62 31 17 -26 79 -137 79 -142 0 -2 -31 -18 -69 -36 -94 -43 -199 -64 -286 -57 -53 4 -861 197 -1197 287 -35 9 -50 33 -32 51 3 3 251 -57 552 -133 301 -76 564 -139 585 -139z m471 -2284 c36 -88 65 -160 64 -162 -2 -1 -12 -4 -22 -6 -16 -2 -29 22 -82 146 -80 188 -79 183 -57 188 10 3 21 2 24 -1 3 -3 36 -78 73 -165z" style="&#10;    fill: #fff;&#10;"/>
        <path d="M7128 15298 c-27 -6 -48 -13 -48 -17 0 -3 87 -113 194 -244 107 -131 202 -249 211 -263 9 -14 18 -24 21 -22 2 3 -3 42 -11 89 -8 46 -18 129 -21 184 -12 215 -69 286 -226 284 -40 -1 -94 -6 -120 -11z" style="&#10;    fill: #fff;&#10;"/>
        <path d="M6999 15226 c-13 -13 -293 -243 -621 -510 -329 -268 -598 -491 -598 -496 0 -17 398 -497 447 -539 61 -53 209 -126 293 -146 213 -49 415 14 653 204 194 156 274 250 329 391 76 192 57 410 -51 588 -32 53 -399 514 -420 526 -4 3 -18 -5 -32 -18z" style="&#10;    fill: #fff;&#10;"/>
        <path d="M10535 13375 c-132 -28 -276 -118 -359 -223 -210 -265 -188 -632 52 -869 190 -187 486 -235 727 -119 114 55 109 46 88 154 -14 75 -20 92 -35 92 -12 0 -18 -8 -18 -22 0 -29 -42 -118 -76 -163 -54 -71 -188 -108 -315 -85 -199 36 -365 203 -426 430 -24 89 -23 273 1 355 48 163 151 302 276 373 103 59 237 75 349 41 90 -27 197 -165 216 -279 11 -67 35 -49 74 59 l35 94 -38 33 c-134 116 -364 170 -551 129z" style="&#10;    fill: #fff;&#10;"/>
        <path d="M11630 13375 c0 -10 10 -15 30 -15 24 0 30 -4 30 -22 0 -13 0 -157 0 -320 l-1 -298 246 0 245 0 0 -35 c0 -24 5 -35 15 -35 12 0 15 17 15 90 0 73 -3 90 -15 90 -11 0 -15 -11 -15 -40 l0 -40 -185 0 -185 0 0 305 0 305 213 0 c121 0 229 -5 252 -11 28 -8 59 -30 102 -74 l62 -62 32 33 33 34 -24 25 c-13 14 -49 38 -79 53 l-56 27 -357 3 c-318 3 -358 1 -358 -13z" style="&#10;    fill: #fff;&#10;"/>
        <path d="M14965 13373 c4 -10 15 -40 24 -68 l18 -50 -202 -555 -201 -555 -57 -3 c-40 -2 -57 -7 -57 -16 0 -21 15 -23 133 -25 102 -2 107 -1 107 19 0 17 -6 20 -46 20 -33 0 -45 4 -42 13 3 6 31 87 64 179 l59 168 323 0 c208 0 322 4 322 10 0 5 -73 206 -162 445 l-161 435 -65 0 c-57 0 -63 -2 -57 -17z m190 -512 c64 -172 114 -315 111 -318 -4 -5 -478 -5 -482 0 -1 1 52 148 117 327 65 179 119 327 119 330 2 14 30 -55 135 -339z" style="&#10;    fill: #fff;&#10;"/>
        <path d="M16150 13385 c0 -4 16 -33 35 -65 l35 -58 0 -561 0 -561 -22 -1 c-13 -1 -38 0 -55 1 -24 1 -33 -3 -33 -14 0 -14 18 -16 125 -16 104 0 125 2 125 15 0 12 -13 15 -55 15 l-55 0 1 533 c0 354 3 527 10 517 6 -8 150 -256 322 -550 l312 -535 63 -1 c34 -1 62 3 62 8 0 5 -59 111 -131 234 -113 194 -130 228 -122 247 6 12 101 175 212 361 l201 339 0 -576 c0 -454 -3 -577 -12 -578 -7 -1 -23 0 -35 1 -17 1 -23 -4 -23 -19 0 -20 5 -21 125 -21 118 0 125 1 125 20 0 16 -7 20 -30 20 l-30 0 0 605 0 605 30 0 c20 0 30 5 30 15 0 13 -21 15 -125 15 -104 0 -125 -2 -125 -15 0 -10 10 -15 30 -15 17 0 30 -2 30 -5 0 -4 -38 -70 -328 -558 -70 -120 -108 -174 -113 -165 -5 7 -106 182 -227 388 l-218 375 -67 3 c-37 2 -67 0 -67 -3z" style="&#10;    fill: #fff;&#10;"/>
        <path d="M19072 13370 c-208 -56 -378 -212 -450 -412 -34 -97 -43 -270 -17 -368 61 -236 254 -423 491 -475 104 -24 241 -16 341 19 84 29 185 86 179 101 -2 6 -9 37 -15 70 -20 101 -21 105 -34 105 -8 0 -21 -24 -30 -53 -23 -72 -68 -140 -117 -176 -56 -40 -156 -57 -253 -43 -187 28 -340 165 -420 376 -30 77 -31 88 -31 231 0 143 1 154 31 231 59 156 154 269 278 330 164 80 348 65 440 -37 41 -46 90 -139 106 -203 6 -25 17 -46 24 -46 7 0 29 44 50 97 l37 97 -34 27 c-57 47 -133 89 -210 116 -101 36 -261 42 -366 13z" style="&#10;    fill: #fff;&#10;"/>
        <path d="M20620 13381 c0 -6 9 -35 21 -66 l21 -56 -203 -559 -203 -560 -53 0 c-47 0 -53 -2 -53 -21 0 -20 4 -20 117 -17 101 3 118 5 121 20 3 14 -6 17 -46 20 l-49 3 62 173 c34 95 65 175 68 178 3 3 146 5 317 5 171 -1 315 1 320 4 6 4 4 21 -5 43 -8 20 -82 217 -164 437 l-149 400 -61 3 c-36 2 -61 -1 -61 -7z m188 -516 l119 -320 -240 -3 c-132 -1 -242 0 -244 2 -3 2 48 151 113 330 65 179 121 323 125 318 4 -4 61 -151 127 -327z" style="&#10;    fill: #fff;&#10;"/>
        <path d="M13010 13365 c0 -10 11 -15 35 -15 l35 0 0 -385 0 -385 -35 0 c-24 0 -35 -5 -35 -15 0 -10 11 -15 35 -15 l35 0 0 -205 0 -205 -22 -1 c-13 -1 -29 -1 -35 0 -7 1 -13 -7 -13 -19 0 -19 6 -20 125 -20 116 0 125 1 125 19 0 15 -6 19 -25 16 -14 -1 -28 1 -31 6 -2 5 -5 97 -5 206 l0 198 155 3 155 3 133 -198 c73 -109 134 -200 136 -204 2 -4 -6 -9 -18 -12 -11 -3 -20 -12 -20 -21 0 -14 17 -16 125 -16 121 0 125 1 125 21 0 18 -5 21 -30 17 -30 -4 -34 1 -152 176 -67 100 -132 196 -145 215 -13 19 -23 37 -23 40 0 4 24 18 53 33 80 40 142 100 179 176 32 65 33 70 33 192 0 113 -2 130 -25 175 -50 102 -173 197 -291 224 -24 6 -164 11 -311 11 -232 0 -268 -2 -268 -15z m574 -35 c108 -41 186 -141 203 -260 4 -30 5 -100 2 -155 -9 -159 -53 -235 -174 -298 -60 -32 -61 -32 -237 -35 l-178 -4 0 386 0 386 165 0 c141 0 172 -3 219 -20z" style="&#10;    fill: #fff;&#10;"/>
        <path d="M17862 13368 c3 -7 19 -14 36 -16 l32 -3 0 -605 0 -604 -22 0 c-30 0 -52 -15 -44 -29 5 -7 51 -11 132 -11 119 0 124 1 124 21 0 15 -6 20 -22 19 -13 -1 -29 -2 -35 -1 -10 1 -13 129 -13 606 l0 605 35 0 c24 0 35 5 35 15 0 13 -21 15 -131 15 -100 0 -130 -3 -127 -12z" style="&#10;    fill: #fff;&#10;"/>
        <path d="M12396 12235 c-21 -25 -57 -57 -82 -71 l-44 -26 -320 1 c-318 1 -320 1 -320 -20 0 -21 1 -21 348 -17 327 4 350 5 402 26 30 12 72 36 93 53 l38 32 -32 33 c-18 19 -36 34 -40 34 -4 0 -23 -20 -43 -45z" style="&#10;    fill: #fff;&#10;"/>
        <path d="M6375 12239 c-60 -3 -173 -9 -250 -13 -77 -4 -162 -9 -190 -11 -27 -2 -113 -7 -190 -10 -150 -7 -205 -12 -212 -19 -6 -5 290 -705 298 -706 7 0 809 759 809 766 0 5 -100 3 -265 -7z" style="&#10;    fill: #fff;&#10;"/>
        <path d="M15362 12123 c3 -16 17 -18 123 -18 106 0 120 2 123 18 3 15 -8 17 -123 17 -115 0 -126 -2 -123 -17z" style="&#10;    fill: #fff;&#10;"/>
        <path d="M21020 12120 c0 -20 5 -21 117 -18 103 3 118 5 121 21 3 15 -8 17 -117 17 -115 0 -121 -1 -121 -20z" style="&#10;    fill: #fff;&#10;"/>
        <path d="M10270 11676 c0 -2 5 -17 10 -31 9 -23 0 -55 -55 -208 -36 -99 -65 -181 -65 -183 0 -2 60 -4 134 -4 l133 0 28 -77 c16 -43 30 -84 33 -90 2 -7 -3 -13 -12 -13 -9 0 -16 -4 -16 -10 0 -6 27 -10 60 -10 33 0 60 4 60 9 0 5 -7 11 -16 13 -11 2 -51 97 -128 303 -107 285 -114 300 -139 303 -15 2 -27 1 -27 -2z m89 -248 c27 -73 53 -141 56 -150 7 -17 -3 -18 -118 -18 l-126 0 23 63 c13 34 40 109 61 166 27 74 40 99 47 88 4 -9 30 -75 57 -149z" style="&#10;    background: red;&#10;    color: red;&#10;    fill: #fff;&#10;"/>
        <path d="M11073 11673 c16 -4 17 -27 17 -308 0 -281 -1 -304 -17 -308 -10 -3 11 -5 47 -4 36 0 55 2 43 4 -23 4 -23 7 -23 149 l0 144 94 0 c82 0 95 -2 99 -17 3 -10 5 0 5 22 0 22 -2 32 -5 23 -4 -16 -17 -18 -99 -18 l-94 0 0 155 0 155 120 0 c119 0 119 0 155 -31 20 -18 41 -29 50 -25 26 10 16 26 -27 46 -37 17 -65 19 -213 19 -93 -1 -162 -3 -152 -6z" style="fill: #fff;"/>
        <path d="M13778 11673 c12 -2 32 -2 45 0 12 2 2 4 -23 4 -25 0 -35 -2 -22 -4z" style="&#10;    fill: #fff;&#10;"/>
        <path d="M14720 11677 c0 -2 5 -17 10 -33 9 -25 -2 -64 -88 -299 -93 -256 -100 -270 -125 -273 -49 -6 -28 -22 28 -22 30 0 55 5 55 10 0 6 -11 10 -24 10 l-23 0 31 88 31 87 131 3 131 3 28 -78 c16 -43 30 -84 33 -90 2 -7 -3 -13 -12 -13 -9 0 -16 -4 -16 -10 0 -6 27 -10 63 -10 57 1 61 2 42 16 -13 9 -59 121 -130 312 -106 284 -112 297 -138 300 -15 2 -27 1 -27 -1z m94 -261 c31 -82 56 -150 56 -152 0 -2 -56 -4 -124 -4 l-124 0 59 162 c33 90 59 165 59 168 1 14 23 -38 74 -174z" style="&#10;    fill: #fff;&#10;"/>
        <path d="M11953 11663 c15 -4 17 -22 17 -193 0 -171 -2 -189 -17 -193 -17 -4 -17 -5 0 -6 15 -1 17 -13 17 -105 0 -91 -2 -105 -17 -109 -10 -3 11 -5 47 -4 36 0 55 2 43 4 -22 4 -23 8 -23 109 l0 104 83 0 82 0 67 -105 c54 -84 63 -105 50 -108 -10 -3 12 -5 48 -5 36 0 57 2 47 5 -22 6 -164 216 -149 221 31 10 91 64 105 95 21 43 22 148 3 185 -18 34 -51 65 -93 86 -47 24 -61 20 -23 -6 59 -41 75 -71 78 -157 3 -64 0 -85 -17 -118 -33 -66 -71 -83 -185 -83 l-96 0 0 190 0 189 93 4 c68 2 58 3 -43 4 -74 0 -127 -1 -117 -4z" style="&#10;    fill: #fff;&#10;"/>
        <path d="M12913 11663 c16 -4 17 -27 17 -303 0 -276 -1 -299 -17 -303 -10 -3 11 -5 47 -4 36 0 55 2 43 4 l-23 4 0 299 0 299 23 4 c12 2 -7 4 -43 4 -36 1 -57 -1 -47 -4z" style="&#10;    fill: #fff;&#10;"/>
        <path d="M13663 11644 c-66 -32 -126 -99 -154 -173 -39 -104 -13 -232 66 -319 34 -39 127 -93 157 -92 7 1 -6 10 -30 22 -100 48 -171 185 -159 308 10 113 74 215 162 259 22 11 33 20 25 20 -8 0 -38 -11 -67 -25z" style="&#10;    fill: #fff;&#10;"/>
        <path d="M13888 11650 c35 -22 68 -69 77 -112 9 -39 18 -35 36 17 l17 45 -27 19 c-32 23 -98 51 -120 51 -9 0 -3 -8 17 -20z" style="&#10;    fill: #fff;&#10;"/>
        <path d="M10123 11158 c-26 -74 -32 -83 -56 -86 -49 -6 -28 -22 28 -22 30 0 55 5 55 10 0 6 -11 10 -24 10 l-23 0 29 81 c16 45 27 84 25 86 -2 2 -17 -34 -34 -79z" style="&#10;    fill: #fff;&#10;"/>
        <path d="M13944 11147 c-11 -23 -35 -52 -53 -64 -43 -29 -15 -31 47 -3 35 16 42 24 41 47 0 15 -4 36 -7 45 -6 14 -11 9 -28 -25z" style="&#10;    fill: #fff;&#10;"/>
        <path d="M13778 11053 c12 -2 32 -2 45 0 12 2 2 4 -23 4 -25 0 -35 -2 -22 -4z" style="&#10;    fill: #fff;&#10;"/>
        <path d="M6445 9959 c-152 -22 -357 -102 -485 -189 -153 -104 -292 -273 -352 -427 -76 -196 -77 -438 -3 -590 49 -99 198 -210 341 -255 63 -19 74 -26 74 -45 0 -23 -10 -27 -110 -38 -119 -14 -180 -27 -180 -40 0 -18 84 -234 114 -293 31 -62 94 -119 141 -128 101 -19 492 44 674 108 166 59 263 120 368 232 74 79 120 158 207 354 69 157 109 216 238 349 170 174 184 216 127 378 -23 65 -29 98 -25 126 6 36 3 40 -76 121 -224 227 -532 350 -868 347 -69 -1 -152 -5 -185 -10z m-501 -650 c3 -17 6 -44 6 -59 0 -23 5 -29 33 -34 17 -4 264 -49 547 -101 283 -52 554 -102 603 -111 l87 -16 64 40 64 40 7 -51 c4 -29 9 -59 11 -68 4 -13 -100 -83 -434 -293 -242 -152 -443 -276 -449 -276 -5 0 -22 98 -37 218 -35 281 -67 506 -72 511 -2 3 -86 19 -187 38 -100 18 -192 35 -204 38 -22 5 -23 4 -16 -55 5 -49 3 -60 -9 -60 -11 0 -18 23 -27 99 -6 54 -14 115 -18 135 -4 28 -2 36 9 36 9 0 18 -13 22 -31z m130 -991 c3 -13 10 -61 16 -108 6 -47 13 -97 16 -112 4 -21 2 -28 -10 -28 -18 0 -20 10 -36 130 -6 47 -13 97 -16 113 -4 20 -2 27 10 27 9 0 18 -10 20 -22z" style="&#10;    fill: #fff;&#10;"/>
        <path d="M6410 9094 c0 -23 72 -559 75 -563 4 -3 671 412 687 428 4 3 -166 38 -377 77 -264 48 -385 66 -385 58z" style="&#10;    fill: #fff;&#10;"/>
    </g>
</svg>
