<?xml version="1.0" standalone="no"?>
<!DOCTYPE svg PUBLIC "-//W3C//DTD SVG 20010904//EN"
 "http://www.w3.org/TR/2001/REC-SVG-20010904/DTD/svg10.dtd">
<svg version="1.0" xmlns="http://www.w3.org/2000/svg"
 width="100" height="100" viewBox="0 0 2363.000000 2363.000000"
 preserveAspectRatio="xMidYMid meet">

<g xmlns="http://www.w3.org/2000/svg" transform="translate(0.000000,2363.000000) scale(0.100000,-0.100000)" fill="#000000" stroke="none">
<path d="M4460 15940 c-115 -14 -213 -38 -355 -87 -71 -24 -158 -47 -192 -50 -59 -6 -67 -3 -147 37 -98 49 -133 49 -189 1 -17 -15 -79 -63 -137 -106 -195 -147 -265 -228 -339 -395 -43 -96 -65 -134 -115 -194 -34 -41 -37 -48 -18 -41 41 12 274 6 358 -10 212 -40 412 -146 556 -292 l67 -68 -77 -152 c-42 -84 -80 -153 -84 -153 -17 0 -38 35 -38 64 0 55 -39 187 -81 273 -102 208 -258 296 -524 297 -175 0 -297 -38 -450 -139 -199 -132 -359 -361 -431 -616 -23 -82 -27 -117 -31 -285 -5 -184 -4 -196 22 -300 94 -375 329 -635 649 -718 144 -38 319 -29 425 21 99 47 199 169 247 300 26 70 36 82 60 65 8 -5 35 -240 34 -300 0 -18 -146 -85 -253 -116 -234 -68 -520 -47 -742 53 -202 92 -389 262 -501 456 l-29 50 -12 -55 c-7 -30 -13 -103 -14 -162 -1 -148 13 -177 118 -250 92 -65 145 -130 229 -281 139 -251 207 -334 321 -395 141 -74 303 -92 608 -67 236 19 399 50 510 95 144 59 179 69 244 70 81 0 121 -18 226 -106 100 -83 131 -99 258 -129 57 -13 116 -29 132 -35 15 -6 30 -9 32 -7 2 3 -8 31 -22 62 -14 32 -24 59 -23 61 2 1 12 4 22 6 16 2 26 -11 50 -70 l31 -74 125 6 c69 4 157 9 195 11 39 2 122 7 185 10 63 3 147 8 185 10 39 2 117 7 175 10 58 3 143 8 190 10 47 3 218 12 380 20 451 23 402 14 481 90 37 36 71 65 77 65 8 0 72 -143 72 -161 0 -4 -199 -195 -442 -425 -244 -231 -479 -454 -524 -497 l-81 -77 -56 132 c-215 508 -329 774 -337 782 -5 5 -85 4 -187 -3 -98 -6 -230 -14 -293 -17 -63 -4 -117 -8 -119 -10 -2 -2 6 -22 17 -46 28 -57 37 -98 23 -98 -6 0 -11 -8 -11 -18 0 -9 -22 -64 -50 -122 -53 -112 -61 -155 -37 -213 8 -18 75 -123 151 -235 146 -218 232 -379 268 -507 19 -68 23 -103 22 -235 0 -137 -5 -177 -37 -345 -49 -248 -56 -310 -52 -430 6 -166 46 -297 195 -640 48 -110 95 -222 106 -250 l19 -50 7 116 c25 434 269 797 661 984 315 151 692 148 1002 -8 156 -78 343 -240 434 -374 l41 -63 48 34 c26 19 102 61 170 95 97 49 137 76 195 130 62 59 70 71 58 84 -9 12 -11 34 -6 82 4 36 3 65 -1 66 -5 0 -16 2 -24 3 -8 2 -55 7 -105 10 -49 4 -103 9 -120 12 -23 3 -1854 172 -2180 200 -38 4 -101 9 -138 13 -37 4 -70 5 -72 2 -1 -3 -6 -36 -10 -73 -7 -67 -8 -68 -37 -68 -27 0 -29 2 -24 33 3 17 8 66 11 107 4 41 13 143 21 225 7 83 14 156 14 163 0 7 13 12 30 12 l30 0 -6 -62 c-3 -35 -7 -68 -9 -75 -5 -17 3 -18 455 -58 328 -29 597 -53 1100 -100 30 -2 154 -14 275 -25 121 -11 243 -22 270 -25 195 -19 494 -45 522 -45 32 0 33 1 33 39 0 73 10 101 36 101 30 0 30 -12 9 -224 -26 -265 -26 -254 -10 -232 22 29 54 133 64 211 16 115 -1 208 -86 453 -36 105 -49 131 -62 128 -9 -3 -225 -46 -481 -96 -256 -51 -466 -93 -467 -94 -1 -1 2 -18 6 -38 7 -28 5 -38 -5 -42 -16 -6 -15 -9 -48 159 -13 66 -22 123 -20 127 12 19 24 5 30 -32 5 -28 11 -40 23 -39 9 0 225 42 481 92 l465 93 2 59 c0 33 4 83 7 111 5 43 3 53 -12 59 -9 4 -150 54 -312 112 -162 58 -310 110 -329 117 l-34 12 174 155 c96 85 267 236 381 337 114 100 209 186 212 191 3 4 -79 -9 -182 -29 -103 -21 -388 -77 -635 -125 l-447 -88 7 -36 c10 -51 10 -86 -2 -89 -11 -3 -67 255 -60 276 10 28 24 8 35 -53 7 -36 17 -65 23 -65 12 0 951 184 1175 230 147 31 172 42 226 99 17 17 33 31 36 31 4 0 12 -32 19 -70 10 -54 10 -74 1 -85 -6 -7 -186 -168 -401 -357 -214 -188 -389 -345 -389 -348 0 -3 114 -45 253 -94 138 -49 257 -91 263 -93 5 -2 33 43 62 99 28 57 75 135 103 173 29 39 199 216 379 395 409 407 500 519 615 755 86 175 137 382 115 464 -24 92 -92 85 -375 -40 -114 -50 -125 -53 -205 -54 -71 0 -93 4 -133 25 -55 28 -172 145 -348 350 -275 322 -445 559 -576 805 l-53 100 0 -80 c-1 -146 -41 -300 -106 -411 -61 -105 -273 -293 -402 -358 -119 -60 -171 -71 -332 -71 -170 0 -249 18 -395 90 -49 24 -90 43 -92 41 -2 -1 -74 -241 -162 -532 l-159 -529 39 -49 c37 -47 38 -50 22 -68 -9 -10 -20 -17 -24 -16 -4 2 -79 91 -167 200 -159 194 -160 196 -140 214 19 18 21 18 55 -19 19 -21 36 -37 38 -35 2 2 71 227 154 501 l151 498 -201 247 c-110 136 -206 251 -213 256 -9 6 -111 -71 -342 -259 -181 -147 -332 -271 -336 -274 -4 -4 12 -31 37 -61 41 -51 43 -55 28 -72 -9 -10 -19 -18 -23 -18 -7 0 -323 385 -328 400 -2 5 7 14 19 20 20 11 26 7 69 -41 l46 -53 330 269 c181 147 333 272 338 276 5 4 -13 33 -39 64 -46 53 -47 56 -29 70 10 8 22 15 25 15 3 0 25 -24 49 -54 l43 -54 111 91 c61 49 299 243 529 431 229 187 417 343 417 346 0 3 -29 13 -65 22 -36 10 -118 42 -184 72 -65 31 -139 60 -164 66 -85 19 -187 -13 -224 -69 -9 -14 -24 -57 -34 -95 -24 -93 -52 -120 -120 -114 -28 3 -47 1 -46 -5 1 -5 -30 -29 -70 -52 l-72 -43 -45 93 c-47 96 -120 187 -181 225 -29 18 -812 226 -820 218 -4 -4 -268 -1050 -269 -1067 -1 -17 646 -185 655 -169 3 5 12 34 18 64 10 42 17 54 31 54 10 0 21 -4 24 -8 2 -4 -12 -74 -32 -155 -29 -118 -40 -147 -54 -147 -27 0 -30 15 -14 75 8 30 11 57 8 59 -4 2 -196 52 -426 110 -230 58 -420 107 -421 108 -2 2 60 251 136 553 76 303 139 556 139 563 0 14 -4 16 -67 32 -32 8 -43 16 -43 30 0 10 4 21 8 24 5 3 210 -47 458 -109 247 -63 453 -115 459 -115 5 0 -18 16 -52 37 -34 20 -64 41 -66 47 -4 9 51 263 69 318 6 20 -16 25 -156 33 -58 4 -116 9 -130 11 -55 10 -400 12 -470 4z m463 -2720 c80 0 204 56 306 138 42 35 55 41 62 31 17 -26 79 -137 79 -142 0 -2 -31 -18 -69 -36 -94 -43 -199 -64 -286 -57 -53 4 -861 197 -1197 287 -35 9 -50 33 -32 51 3 3 251 -57 552 -133 301 -76 564 -139 585 -139z m471 -2284 c36 -88 65 -160 64 -162 -2 -1 -12 -4 -22 -6 -16 -2 -29 22 -82 146 -80 188 -79 183 -57 188 10 3 21 2 24 -1 3 -3 36 -78 73 -165z"/>
<path d="M7128 15298 c-27 -6 -48 -13 -48 -17 0 -3 87 -113 194 -244 107 -131 202 -249 211 -263 9 -14 18 -24 21 -22 2 3 -3 42 -11 89 -8 46 -18 129 -21 184 -12 215 -69 286 -226 284 -40 -1 -94 -6 -120 -11z"/>
<path d="M6999 15226 c-13 -13 -293 -243 -621 -510 -329 -268 -598 -491 -598 -496 0 -17 398 -497 447 -539 61 -53 209 -126 293 -146 213 -49 415 14 653 204 194 156 274 250 329 391 76 192 57 410 -51 588 -32 53 -399 514 -420 526 -4 3 -18 -5 -32 -18z"/>
<path d="M6375 12239 c-60 -3 -173 -9 -250 -13 -77 -4 -162 -9 -190 -11 -27 -2 -113 -7 -190 -10 -150 -7 -205 -12 -212 -19 -6 -5 290 -705 298 -706 7 0 809 759 809 766 0 5 -100 3 -265 -7z"/>
<path d="M6445 9959 c-152 -22 -357 -102 -485 -189 -153 -104 -292 -273 -352 -427 -76 -196 -77 -438 -3 -590 49 -99 198 -210 341 -255 63 -19 74 -26 74 -45 0 -23 -10 -27 -110 -38 -119 -14 -180 -27 -180 -40 0 -18 84 -234 114 -293 31 -62 94 -119 141 -128 101 -19 492 44 674 108 166 59 263 120 368 232 74 79 120 158 207 354 69 157 109 216 238 349 170 174 184 216 127 378 -23 65 -29 98 -25 126 6 36 3 40 -76 121 -224 227 -532 350 -868 347 -69 -1 -152 -5 -185 -10z m-501 -650 c3 -17 6 -44 6 -59 0 -23 5 -29 33 -34 17 -4 264 -49 547 -101 283 -52 554 -102 603 -111 l87 -16 64 40 64 40 7 -51 c4 -29 9 -59 11 -68 4 -13 -100 -83 -434 -293 -242 -152 -443 -276 -449 -276 -5 0 -22 98 -37 218 -35 281 -67 506 -72 511 -2 3 -86 19 -187 38 -100 18 -192 35 -204 38 -22 5 -23 4 -16 -55 5 -49 3 -60 -9 -60 -11 0 -18 23 -27 99 -6 54 -14 115 -18 135 -4 28 -2 36 9 36 9 0 18 -13 22 -31z m130 -991 c3 -13 10 -61 16 -108 6 -47 13 -97 16 -112 4 -21 2 -28 -10 -28 -18 0 -20 10 -36 130 -6 47 -13 97 -16 113 -4 20 -2 27 10 27 9 0 18 -10 20 -22z"/>
<path d="M6410 9094 c0 -23 72 -559 75 -563 4 -3 671 412 687 428 4 3 -166 38 -377 77 -264 48 -385 66 -385 58z"/>
</g>
</svg>
